<mxfile host="app.diagrams.net" modified="2023-10-09T18:34:28.916Z" agent="Mozilla/5.0 (Windows NT 10.0; Win64; x64) AppleWebKit/537.36 (KHTML, like Gecko) Chrome/117.0.0.0 Safari/537.36" etag="_Jab7jdjtWMmua18tn9U" version="22.0.4" type="github">
  <diagram id="C5RBs43oDa-KdzZeNtuy" name="Page-1">
    <mxGraphModel dx="777" dy="726" grid="1" gridSize="10" guides="1" tooltips="1" connect="1" arrows="1" fold="1" page="1" pageScale="1" pageWidth="827" pageHeight="1169" math="0" shadow="0">
      <root>
        <mxCell id="WIyWlLk6GJQsqaUBKTNV-0" />
        <mxCell id="WIyWlLk6GJQsqaUBKTNV-1" parent="WIyWlLk6GJQsqaUBKTNV-0" />
        <mxCell id="wUb1TsKi42cjw5RyP3rc-18" value="" style="edgeStyle=orthogonalEdgeStyle;rounded=0;orthogonalLoop=1;jettySize=auto;html=1;" edge="1" parent="WIyWlLk6GJQsqaUBKTNV-1" source="wUb1TsKi42cjw5RyP3rc-19" target="wUb1TsKi42cjw5RyP3rc-22">
          <mxGeometry relative="1" as="geometry" />
        </mxCell>
        <mxCell id="wUb1TsKi42cjw5RyP3rc-19" value="" style="strokeWidth=2;html=1;shape=mxgraph.flowchart.start_2;whiteSpace=wrap;" vertex="1" parent="WIyWlLk6GJQsqaUBKTNV-1">
          <mxGeometry x="125" y="35" width="30" height="30" as="geometry" />
        </mxCell>
        <mxCell id="wUb1TsKi42cjw5RyP3rc-20" value="" style="strokeWidth=2;html=1;shape=mxgraph.flowchart.terminator;whiteSpace=wrap;" vertex="1" parent="WIyWlLk6GJQsqaUBKTNV-1">
          <mxGeometry x="107.5" y="595" width="65" height="40" as="geometry" />
        </mxCell>
        <mxCell id="wUb1TsKi42cjw5RyP3rc-21" value="" style="edgeStyle=orthogonalEdgeStyle;rounded=0;orthogonalLoop=1;jettySize=auto;html=1;" edge="1" parent="WIyWlLk6GJQsqaUBKTNV-1" source="wUb1TsKi42cjw5RyP3rc-22" target="wUb1TsKi42cjw5RyP3rc-24">
          <mxGeometry relative="1" as="geometry" />
        </mxCell>
        <mxCell id="wUb1TsKi42cjw5RyP3rc-22" value="inteiro qtdMax = 0&lt;br&gt;inteiro qtdMin = 0&lt;br&gt;inteiro qtdEstoque = 0" style="whiteSpace=wrap;html=1;strokeWidth=2;" vertex="1" parent="WIyWlLk6GJQsqaUBKTNV-1">
          <mxGeometry x="55" y="95" width="170" height="85" as="geometry" />
        </mxCell>
        <mxCell id="wUb1TsKi42cjw5RyP3rc-23" value="" style="edgeStyle=orthogonalEdgeStyle;rounded=0;orthogonalLoop=1;jettySize=auto;html=1;" edge="1" parent="WIyWlLk6GJQsqaUBKTNV-1" source="wUb1TsKi42cjw5RyP3rc-24" target="wUb1TsKi42cjw5RyP3rc-27">
          <mxGeometry relative="1" as="geometry" />
        </mxCell>
        <mxCell id="wUb1TsKi42cjw5RyP3rc-24" value="leia qtdMax&lt;br&gt;leia qtdMin&lt;br&gt;leia qtdEstoque" style="html=1;strokeWidth=2;shape=manualInput;whiteSpace=wrap;rounded=1;size=26;arcSize=11;" vertex="1" parent="WIyWlLk6GJQsqaUBKTNV-1">
          <mxGeometry x="65" y="190" width="150" height="80" as="geometry" />
        </mxCell>
        <mxCell id="wUb1TsKi42cjw5RyP3rc-25" value="" style="edgeStyle=orthogonalEdgeStyle;rounded=0;orthogonalLoop=1;jettySize=auto;html=1;" edge="1" parent="WIyWlLk6GJQsqaUBKTNV-1" source="wUb1TsKi42cjw5RyP3rc-27">
          <mxGeometry relative="1" as="geometry">
            <mxPoint x="347" y="330" as="targetPoint" />
          </mxGeometry>
        </mxCell>
        <mxCell id="wUb1TsKi42cjw5RyP3rc-26" value="" style="edgeStyle=orthogonalEdgeStyle;rounded=0;orthogonalLoop=1;jettySize=auto;html=1;" edge="1" parent="WIyWlLk6GJQsqaUBKTNV-1" source="wUb1TsKi42cjw5RyP3rc-27">
          <mxGeometry relative="1" as="geometry">
            <mxPoint x="507" y="230" as="targetPoint" />
          </mxGeometry>
        </mxCell>
        <mxCell id="wUb1TsKi42cjw5RyP3rc-27" value="qtdEstoque &amp;gt; &lt;br&gt;(qtdMax + qtdMin)/2" style="rhombus;whiteSpace=wrap;html=1;strokeWidth=2;rounded=1;arcSize=11;" vertex="1" parent="WIyWlLk6GJQsqaUBKTNV-1">
          <mxGeometry x="277" y="170" width="140" height="120" as="geometry" />
        </mxCell>
        <mxCell id="wUb1TsKi42cjw5RyP3rc-28" style="edgeStyle=orthogonalEdgeStyle;rounded=0;orthogonalLoop=1;jettySize=auto;html=1;entryX=0.5;entryY=0;entryDx=0;entryDy=0;" edge="1" parent="WIyWlLk6GJQsqaUBKTNV-1" target="wUb1TsKi42cjw5RyP3rc-33">
          <mxGeometry relative="1" as="geometry">
            <mxPoint x="287" y="360" as="sourcePoint" />
          </mxGeometry>
        </mxCell>
        <mxCell id="wUb1TsKi42cjw5RyP3rc-30" value="" style="edgeStyle=orthogonalEdgeStyle;rounded=0;orthogonalLoop=1;jettySize=auto;html=1;" edge="1" parent="WIyWlLk6GJQsqaUBKTNV-1" target="wUb1TsKi42cjw5RyP3rc-33">
          <mxGeometry relative="1" as="geometry">
            <Array as="points">
              <mxPoint x="589" y="500" />
            </Array>
            <mxPoint x="588.5" y="275" as="sourcePoint" />
          </mxGeometry>
        </mxCell>
        <mxCell id="wUb1TsKi42cjw5RyP3rc-38" style="edgeStyle=orthogonalEdgeStyle;rounded=0;orthogonalLoop=1;jettySize=auto;html=1;" edge="1" parent="WIyWlLk6GJQsqaUBKTNV-1" source="wUb1TsKi42cjw5RyP3rc-33">
          <mxGeometry relative="1" as="geometry">
            <mxPoint x="140" y="590" as="targetPoint" />
          </mxGeometry>
        </mxCell>
        <mxCell id="wUb1TsKi42cjw5RyP3rc-33" value="" style="ellipse;whiteSpace=wrap;html=1;strokeWidth=2;rounded=1;arcSize=11;" vertex="1" parent="WIyWlLk6GJQsqaUBKTNV-1">
          <mxGeometry x="113.5" y="480" width="41.5" height="40" as="geometry" />
        </mxCell>
        <mxCell id="wUb1TsKi42cjw5RyP3rc-36" value="escreva &quot;Efetuar compra&quot;" style="shape=document;whiteSpace=wrap;html=1;boundedLbl=1;" vertex="1" parent="WIyWlLk6GJQsqaUBKTNV-1">
          <mxGeometry x="510" y="210" width="120" height="60" as="geometry" />
        </mxCell>
        <mxCell id="wUb1TsKi42cjw5RyP3rc-37" value="escreva &quot;NÃ£o efetuar compra&quot;" style="shape=document;whiteSpace=wrap;html=1;boundedLbl=1;" vertex="1" parent="WIyWlLk6GJQsqaUBKTNV-1">
          <mxGeometry x="287" y="330" width="120" height="60" as="geometry" />
        </mxCell>
      </root>
    </mxGraphModel>
  </diagram>
</mxfile>
